<svg id="visual" viewBox="0 0 960 540" width="960" height="540" xmlns="http://www.w3.org/2000/svg" xmlns:xlink="http://www.w3.org/1999/xlink" version="1.1"><path d="M0 412L22.8 419.3C45.7 426.7 91.3 441.3 137 445.2C182.7 449 228.3 442 274 433.2C319.7 424.3 365.3 413.7 411.2 418.5C457 423.3 503 443.7 548.8 439.7C594.7 435.7 640.3 407.3 686 388.2C731.7 369 777.3 359 823 354.8C868.7 350.7 914.3 352.3 937.2 353.2L960 354L960 541L937.2 541C914.3 541 868.7 541 823 541C777.3 541 731.7 541 686 541C640.3 541 594.7 541 548.8 541C503 541 457 541 411.2 541C365.3 541 319.7 541 274 541C228.3 541 182.7 541 137 541C91.3 541 45.7 541 22.8 541L0 541Z" fill="#0066FF" stroke-linecap="round" stroke-linejoin="miter"></path></svg>